# Blender 4.5.3 LTS
# www.blender.org
mtllib CAJONES_CHICOS.mtl
o CAJONES_CHICOS
v 0.237208 0.050812 0.062024
v 0.237208 0.064026 0.062024
v 0.478830 0.050812 0.062024
v 0.478830 0.064026 0.062024
v 0.237208 0.050812 0.173806
v 0.237208 0.064026 0.173806
v 0.478830 0.050812 0.173806
v 0.478830 0.064026 0.173806
v 0.079531 -0.188366 0.157760
v 0.079531 0.087298 0.157760
v 0.689809 -0.188366 0.157760
v 0.689809 0.087298 0.157760
v 0.079531 -0.188366 0.116498
v 0.079531 0.087298 0.116498
v 0.689809 -0.188366 0.116498
v 0.689809 0.087298 0.116498
v 0.689809 0.087298 0.116498
v 0.689809 -0.188366 0.116498
v 0.079531 -0.188366 0.116498
v 0.079531 0.087298 0.116498
v 0.689809 0.087298 -0.456557
v 0.689809 -0.188366 -0.456557
v 0.079531 -0.188366 -0.456557
v 0.079531 0.087298 -0.456557
v 0.689809 0.087298 0.116498
v 0.079531 0.087298 0.116498
v 0.689809 0.087298 -0.456557
v 0.079531 0.087298 -0.456557
v -0.516903 0.050812 0.062024
v -0.516903 0.064026 0.062024
v -0.275281 0.050812 0.062024
v -0.275281 0.064026 0.062024
v -0.516903 0.050812 0.173806
v -0.516903 0.064026 0.173806
v -0.275281 0.050812 0.173806
v -0.275281 0.064026 0.173806
v -0.674580 -0.188366 0.157760
v -0.674580 0.087298 0.157760
v -0.064302 -0.188366 0.157760
v -0.064302 0.087298 0.157760
v -0.674580 -0.188366 0.116498
v -0.674580 0.087298 0.116498
v -0.064302 -0.188366 0.116498
v -0.064302 0.087298 0.116498
v -0.064302 0.087298 0.116498
v -0.064302 -0.188366 0.116498
v -0.674580 -0.188366 0.116498
v -0.674580 0.087298 0.116498
v -0.064302 0.087298 -0.456557
v -0.064302 -0.188366 -0.456557
v -0.674580 -0.188366 -0.456557
v -0.674580 0.087298 -0.456557
v -0.064302 0.087298 0.116498
v -0.674580 0.087298 0.116498
v -0.064302 0.087298 -0.456557
v -0.674580 0.087298 -0.456557
vn -0.0000 -0.0000 -1.0000
vn 1.0000 -0.0000 -0.0000
vn -0.0000 -0.0000 1.0000
vn -1.0000 -0.0000 -0.0000
vn -0.0000 -1.0000 -0.0000
vn -0.0000 1.0000 -0.0000
vt 0.897661 0.924739
vt 0.894711 0.927688
vt 0.894711 0.924739
vt 0.897661 0.927688
vt 0.894711 0.930637
vt 0.897661 0.930637
vt 0.894711 0.933586
vt 0.897661 0.933586
vt 0.894711 0.936535
vt 0.891762 0.933586
vt 0.891762 0.930637
vt 0.900610 0.930637
vt 0.878171 0.064961
vt 0.878092 0.065040
vt 0.878092 0.064961
vt 0.878171 0.065040
vt 0.878092 0.065119
vt 0.878171 0.065198
vt 0.878171 0.065119
vt 0.878092 0.065277
vt 0.878092 0.065198
vt 0.878013 0.065198
vt 0.878013 0.065119
vt 0.878250 0.065119
vt 0.897661 0.936535
vt 0.900610 0.933586
vt 0.878171 0.065277
vt 0.878250 0.065198
s 0
usemtl Material.010
f 2/1/1 3/2/1 1/3/1
f 4/4/2 7/5/2 3/2/2
f 8/6/3 5/7/3 7/5/3
f 6/8/4 1/9/4 5/7/4
f 7/5/5 1/10/5 3/11/5
f 4/12/6 6/8/6 8/6/6
f 30/1/1 31/2/1 29/3/1
f 32/4/2 35/5/2 31/2/2
f 36/6/3 33/7/3 35/5/3
f 34/8/4 29/9/4 33/7/4
f 35/5/5 29/10/5 31/11/5
f 32/12/6 34/8/6 36/6/6
f 2/1/1 4/4/1 3/2/1
f 4/4/2 8/6/2 7/5/2
f 8/6/3 6/8/3 5/7/3
f 6/8/4 2/25/4 1/9/4
f 7/5/5 5/7/5 1/10/5
f 4/12/6 2/26/6 6/8/6
f 30/1/1 32/4/1 31/2/1
f 32/4/2 36/6/2 35/5/2
f 36/6/3 34/8/3 33/7/3
f 34/8/4 30/25/4 29/9/4
f 35/5/5 33/7/5 29/10/5
f 32/12/6 30/26/6 34/8/6
usemtl Material.003
f 10/13/1 11/14/1 9/15/1
f 12/16/4 15/17/4 11/14/4
f 14/18/6 17/19/6 16/19/6
f 14/18/2 9/20/2 13/21/2
f 15/17/6 9/22/6 11/23/6
f 12/24/5 14/18/5 16/19/5
f 19/21/2 24/18/2 20/18/2
f 16/19/6 18/17/6 15/17/6
f 13/21/6 20/18/6 14/18/6
f 15/17/6 19/21/6 13/21/6
f 21/19/3 23/21/3 22/17/3
f 18/17/6 23/21/6 19/21/6
f 21/19/6 28/18/6 24/18/6
f 17/19/4 22/17/4 18/17/4
f 17/19/6 27/19/6 21/19/6
f 20/18/6 25/19/6 17/19/6
f 24/18/6 26/18/6 20/18/6
f 38/13/1 39/14/1 37/15/1
f 40/16/4 43/17/4 39/14/4
f 42/18/6 45/19/6 44/19/6
f 42/18/2 37/20/2 41/21/2
f 43/17/6 37/22/6 39/23/6
f 40/24/5 42/18/5 44/19/5
f 47/21/2 52/18/2 48/18/2
f 44/19/6 46/17/6 43/17/6
f 41/21/6 48/18/6 42/18/6
f 43/17/6 47/21/6 41/21/6
f 49/19/3 51/21/3 50/17/3
f 46/17/6 51/21/6 47/21/6
f 49/19/6 56/18/6 52/18/6
f 45/19/4 50/17/4 46/17/4
f 45/19/6 55/19/6 49/19/6
f 48/18/6 53/19/6 45/19/6
f 52/18/6 54/18/6 48/18/6
f 10/13/1 12/16/1 11/14/1
f 12/16/4 16/19/4 15/17/4
f 14/18/6 20/18/6 17/19/6
f 14/18/2 10/27/2 9/20/2
f 15/17/6 13/21/6 9/22/6
f 12/24/5 10/28/5 14/18/5
f 19/21/2 23/21/2 24/18/2
f 16/19/6 17/19/6 18/17/6
f 13/21/6 19/21/6 20/18/6
f 15/17/6 18/17/6 19/21/6
f 21/19/3 24/18/3 23/21/3
f 18/17/6 22/17/6 23/21/6
f 21/19/6 27/19/6 28/18/6
f 17/19/4 21/19/4 22/17/4
f 17/19/6 25/19/6 27/19/6
f 20/18/6 26/18/6 25/19/6
f 24/18/6 28/18/6 26/18/6
f 38/13/1 40/16/1 39/14/1
f 40/16/4 44/19/4 43/17/4
f 42/18/6 48/18/6 45/19/6
f 42/18/2 38/27/2 37/20/2
f 43/17/6 41/21/6 37/22/6
f 40/24/5 38/28/5 42/18/5
f 47/21/2 51/21/2 52/18/2
f 44/19/6 45/19/6 46/17/6
f 41/21/6 47/21/6 48/18/6
f 43/17/6 46/17/6 47/21/6
f 49/19/3 52/18/3 51/21/3
f 46/17/6 50/17/6 51/21/6
f 49/19/6 55/19/6 56/18/6
f 45/19/4 49/19/4 50/17/4
f 45/19/6 53/19/6 55/19/6
f 48/18/6 54/18/6 53/19/6
f 52/18/6 56/18/6 54/18/6
