# Blender 4.5.3 LTS
# www.blender.org
mtllib LAVADORA_TAMBOR.mtl
o washing_machine_001.001
v 0.296659 -0.000000 -0.024745
v 0.000001 -0.000000 -0.093224
v 0.249576 -0.160390 -0.024744
v 0.123237 -0.269857 -0.024744
v -0.042220 -0.293646 -0.024744
v -0.194276 -0.224205 -0.024744
v -0.284643 -0.083580 -0.024744
v -0.284643 0.083580 -0.024744
v -0.194276 0.224205 -0.024744
v -0.042221 0.293646 -0.024745
v 0.123237 0.269857 -0.024745
v 0.249576 0.160390 -0.024745
v 0.249576 -0.160390 0.009862
v 0.296659 0.000000 0.009862
v 0.123237 -0.269857 0.009862
v -0.042220 -0.293646 0.009862
v -0.194276 -0.224205 0.009862
v -0.284643 -0.083580 0.009862
v -0.284643 0.083580 0.009862
v -0.194276 0.224205 0.009862
v -0.042221 0.293646 0.009862
v 0.123237 0.269857 0.009862
v 0.249576 0.160390 0.009862
v 0.181828 -0.116854 0.021120
v 0.216141 0.000000 0.021120
v 0.089789 -0.196608 0.021120
v -0.030759 -0.213941 0.021120
v -0.141543 -0.163348 0.021120
v -0.207389 -0.060894 0.021120
v -0.207389 0.060894 0.021120
v -0.141543 0.163348 0.021120
v -0.030759 0.213941 0.021120
v 0.089789 0.196608 0.021120
v 0.181828 0.116855 0.021120
v 0.252967 0.000000 0.004923
v 0.078172 -0.240587 0.004923
v -0.204658 -0.148691 0.004923
v -0.204658 0.148691 0.004923
v 0.078172 0.240587 0.004923
vn 0.9595 -0.2817 -0.0000
vn 0.6548 -0.7558 -0.0000
vn 0.1423 -0.9898 -0.0000
vn -0.4154 -0.9096 -0.0000
vn -0.8413 -0.5406 -0.0000
vn -1.0000 -0.0000 -0.0000
vn -0.8413 0.5406 -0.0000
vn -0.4154 0.9096 -0.0000
vn 0.1423 0.9898 -0.0000
vn 0.6548 0.7558 -0.0000
vn 0.9595 0.2817 -0.0000
vn 0.1716 -0.0279 0.9848
vn 0.1384 -0.0406 0.9895
vn 0.1712 -0.0539 0.9838
vn 0.0967 -0.1445 0.9848
vn 0.0944 -0.1090 0.9895
vn 0.0944 -0.1090 0.9896
vn 0.0459 -0.1677 0.9848
vn 0.0205 -0.1427 0.9895
vn 0.0032 -0.1738 0.9848
vn -0.0521 -0.1659 0.9848
vn -0.0599 -0.1312 0.9895
vn -0.0913 -0.1480 0.9848
vn -0.1568 -0.0751 0.9848
vn -0.1213 -0.0780 0.9895
vn -0.1725 0.0216 0.9848
vn -0.1442 -0.0000 0.9895
vn -0.1568 0.0751 0.9848
vn -0.1213 0.0780 0.9895
vn -0.1335 0.1114 0.9848
vn -0.0521 0.1659 0.9848
vn -0.0599 0.1312 0.9895
vn 0.0459 0.1677 0.9848
vn 0.0205 0.1427 0.9895
vn 0.0967 0.1445 0.9848
vn 0.0944 0.1090 0.9895
vn 0.1293 0.1163 0.9848
vn 0.1716 0.0279 0.9848
vn 0.1384 0.0406 0.9895
vn 0.1383 0.0406 0.9896
vn -0.4633 0.1360 0.8757
vn -0.4735 0.1686 0.8645
vn -0.4808 0.1051 0.8705
vn -0.3162 0.3649 0.8757
vn -0.3072 0.3978 0.8645
vn -0.3500 0.3606 0.8645
vn -0.0687 0.4779 0.8757
vn -0.0433 0.5007 0.8645
vn -0.0995 0.4926 0.8645
vn 0.2006 0.4392 0.8757
vn 0.2343 0.4447 0.8645
vn 0.1826 0.4682 0.8645
vn 0.4062 0.2610 0.8757
vn 0.4375 0.2474 0.8645
vn 0.4068 0.2952 0.8645
vn 0.4828 -0.0000 0.8757
vn 0.5018 -0.0284 0.8645
vn 0.5018 0.0284 0.8645
vn 0.4062 -0.2610 0.8757
vn 0.4068 -0.2952 0.8645
vn 0.4375 -0.2474 0.8645
vn 0.2006 -0.4392 0.8757
vn 0.1826 -0.4682 0.8645
vn 0.2343 -0.4447 0.8645
vn -0.0687 -0.4779 0.8757
vn -0.0995 -0.4926 0.8645
vn -0.0433 -0.5007 0.8645
vn -0.3162 -0.3649 0.8757
vn -0.3500 -0.3606 0.8645
vn -0.3072 -0.3978 0.8645
vn -0.4633 -0.1360 0.8757
vn -0.4942 -0.1265 0.8601
vn -0.4735 -0.1686 0.8645
vn -0.0000 -0.0000 1.0000
vn 0.1383 -0.0406 0.9896
vn 0.1293 -0.1163 0.9848
vn -0.1335 -0.1114 0.9848
vn -0.1725 -0.0216 0.9848
vn -0.0913 0.1480 0.9848
vn 0.0032 0.1738 0.9848
vn 0.0944 0.1090 0.9896
vn 0.1415 0.0763 0.9870
vt 0.895878 0.799766
vt 0.895751 0.799374
vt 0.895880 0.799374
vt 0.898844 0.799951
vt 0.898730 0.799495
vt 0.898859 0.799495
vt 0.898730 0.798914
vt 0.898859 0.798913
vt 0.898844 0.798391
vt 0.895432 0.799374
vt 0.895557 0.799718
vt 0.895427 0.799718
vt 0.895427 0.800127
vt 0.895557 0.800127
vt 0.895432 0.800470
vt 0.895427 0.799375
vt 0.895289 0.799900
vt 0.895298 0.799374
vt 0.895419 0.800481
vt 0.895289 0.800481
vt 0.895427 0.800932
vt 0.895298 0.800932
vt 0.895880 0.800158
vt 0.895749 0.799766
vt 0.898651 0.797963
vt 0.898431 0.798391
vt 0.898406 0.798111
vt 0.898969 0.797721
vt 0.898768 0.798188
vt 0.898797 0.797199
vt 0.898797 0.797623
vt 0.898651 0.796825
vt 0.898969 0.797140
vt 0.898431 0.796347
vt 0.898768 0.796627
vt 0.898406 0.796621
vt 0.898064 0.796388
vt 0.897934 0.796905
vt 0.898138 0.796651
vt 0.897680 0.797283
vt 0.897784 0.796737
vt 0.897858 0.797303
vt 0.897784 0.797853
vt 0.898138 0.798020
vt 0.897934 0.797719
vt 0.898064 0.798266
vt 0.898338 0.797361
vt 0.985683 0.289573
vt 0.986472 0.291400
vt 0.985683 0.291599
vt 0.898715 0.799951
vt 0.898715 0.798392
vt 0.895561 0.799374
vt 0.895561 0.800470
vt 0.895419 0.799901
vt 0.895751 0.800158
vt 0.985195 0.290469
vt 0.986472 0.290148
s 1
usemtl Material
f 1/1/1 13/2/1 3/3/1
f 3/4/2 15/5/2 4/6/2
f 4/6/3 16/7/3 5/8/3
f 16/7/4 6/9/4 5/8/4
f 6/10/5 18/11/5 7/12/5
f 18/11/6 8/13/6 7/12/6
f 19/14/7 9/15/7 8/13/7
f 20/16/8 10/17/8 9/18/8
f 10/17/9 22/19/9 11/20/9
f 11/20/10 23/21/10 12/22/10
f 12/23/11 14/24/11 1/1/11
f 24/25/12 14/26/13 25/27/14
f 24/25/15 15/28/16 13/29/17
f 27/30/18 15/28/19 26/31/20
f 28/32/21 16/33/22 27/30/23
f 28/32/24 18/34/25 17/35/25
f 29/36/26 19/37/27 18/34/27
f 31/38/28 19/37/29 30/39/30
f 31/38/31 21/40/32 20/41/32
f 32/42/33 22/43/34 21/40/34
f 34/44/35 22/43/36 33/45/37
f 34/44/38 14/26/39 23/46/40
f 2/47/41 24/25/42 25/27/43
f 2/47/44 26/31/45 24/25/46
f 2/47/47 27/30/48 26/31/49
f 2/47/50 28/32/51 27/30/52
f 2/47/53 29/36/54 28/32/55
f 2/47/56 30/39/57 29/36/58
f 2/47/59 31/38/60 30/39/61
f 2/47/62 32/42/63 31/38/64
f 2/47/65 33/45/66 32/42/67
f 2/47/68 34/44/69 33/45/70
f 2/47/71 25/27/72 34/44/73
f 35/48/74 38/49/74 37/50/74
f 1/1/1 14/24/1 13/2/1
f 3/4/2 13/51/2 15/5/2
f 4/6/3 15/5/3 16/7/3
f 16/7/4 17/52/4 6/9/4
f 6/10/5 17/53/5 18/11/5
f 18/11/6 19/14/6 8/13/6
f 19/14/7 20/54/7 9/15/7
f 20/16/8 21/55/8 10/17/8
f 10/17/9 21/55/9 22/19/9
f 11/20/10 22/19/10 23/21/10
f 12/23/11 23/56/11 14/24/11
f 24/25/12 13/29/75 14/26/13
f 24/25/15 26/31/76 15/28/16
f 27/30/18 16/33/19 15/28/19
f 28/32/21 17/35/22 16/33/22
f 28/32/24 29/36/77 18/34/25
f 29/36/26 30/39/78 19/37/27
f 31/38/28 20/41/29 19/37/29
f 31/38/31 32/42/79 21/40/32
f 32/42/33 33/45/80 22/43/34
f 34/44/35 23/46/81 22/43/36
f 34/44/38 25/27/82 14/26/39
f 37/50/74 36/57/74 35/48/74
f 35/48/74 39/58/74 38/49/74
