# Blender 4.5.3 LTS
# www.blender.org
mtllib MESITA.mtl
o coffee_table_001
v -0.166818 0.221519 -2.116526
v -0.166818 0.195778 -2.116526
v -0.166818 0.221519 -2.868278
v -0.166817 0.195778 -2.868278
v -0.095787 0.104665 -2.792176
v -0.095787 0.104665 -2.177612
v -0.101530 0.006919 -2.205937
v -0.106998 0.206134 -2.211405
v -0.066642 0.006919 -2.205937
v -0.061175 0.206134 -2.211404
v -0.101531 0.006919 -2.171048
v -0.106998 0.206134 -2.165580
v -0.066642 0.006919 -2.171048
v -0.061175 0.206134 -2.165580
v -0.101530 0.006919 -2.765988
v -0.106998 0.206134 -2.760520
v -0.066642 0.006919 -2.765988
v -0.061175 0.206134 -2.760520
v -0.101531 0.006919 -2.800876
v -0.106998 0.206134 -2.806344
v -0.066642 0.006919 -2.800877
v -0.061175 0.206134 -2.806344
v -0.071261 0.104665 -2.767650
v -0.071261 0.104665 -2.202138
v -0.071261 0.072599 -2.767650
v -0.071261 0.072599 -2.202138
v -0.095787 0.072599 -2.792176
v -0.095787 0.072599 -2.177612
v 1.082136 0.221519 -2.116526
v 1.082136 0.195778 -2.116526
v 1.082137 0.221519 -2.868278
v 1.082136 0.195778 -2.868278
v 1.011106 0.104665 -2.792176
v 1.011106 0.104665 -2.177612
v 1.016850 0.006920 -2.205936
v 1.022317 0.206134 -2.211405
v 0.981961 0.006920 -2.205936
v 0.976493 0.206134 -2.211404
v 1.016850 0.006920 -2.171048
v 1.022317 0.206134 -2.165580
v 0.981961 0.006920 -2.171048
v 0.976493 0.206134 -2.165581
v 1.016850 0.006919 -2.765987
v 1.022317 0.206134 -2.760520
v 0.981961 0.006919 -2.765988
v 0.976493 0.206134 -2.760520
v 1.016850 0.006919 -2.800877
v 1.022317 0.206134 -2.806345
v 0.981961 0.006919 -2.800877
v 0.976493 0.206134 -2.806345
v 0.986580 0.104665 -2.767650
v 0.986580 0.104665 -2.202138
v 0.986580 0.072599 -2.767650
v 0.986580 0.072599 -2.202138
v 1.011106 0.072599 -2.792176
v 1.011106 0.072599 -2.177612
v 1.017820 0.221519 -2.180842
v -0.102501 0.221519 -2.180843
v 1.017820 0.221519 -2.803962
v -0.102501 0.221519 -2.803961
v 0.954687 0.208057 -2.215957
v -0.039367 0.208057 -2.215957
v 0.954687 0.208057 -2.768847
v -0.039367 0.208057 -2.768847
vn -0.0000 -0.0000 1.0000
vn -0.1072 0.9905 -0.0857
vn 0.1072 0.9905 0.0857
vn 0.0659 0.9905 -0.1204
vn -1.0000 -0.0000 -0.0000
vn -0.0000 -0.0274 -0.9996
vn 0.9996 -0.0274 -0.0000
vn -0.0000 -0.0274 0.9996
vn -0.9996 -0.0274 -0.0000
vn -0.0000 1.0000 -0.0000
vn -0.0000 -0.0000 -1.0000
vn 1.0000 -0.0000 -0.0000
vn 0.0135 0.9999 0.0007
vn 0.0101 0.9999 0.0091
vn 0.0134 0.9999 -0.0020
vn -0.0007 0.9999 -0.0136
vn -0.0134 0.9999 0.0020
vn -0.0129 0.9321 -0.3620
vn 0.0926 0.9612 -0.2599
vn 0.0117 0.9312 -0.3643
vn -0.2140 0.9768 -0.0124
vn -0.0740 0.9970 0.0221
vn -0.1024 0.9910 -0.0866
vn -0.0133 0.9327 0.3603
vn 0.0116 0.9739 0.2268
vn -0.0926 0.9612 0.2599
vn 0.2088 0.9779 -0.0136
vn 0.1024 0.9910 0.0866
vn 0.2140 0.9768 0.0124
vn -0.0000 -1.0000 -0.0000
vn -0.0659 0.9905 0.1204
vn -0.0081 0.9999 0.0109
vn 0.0081 0.9999 -0.0109
vn -0.0101 0.9999 0.0091
vn -0.0116 0.9739 -0.2268
vn -0.2170 0.9761 0.0104
vn 0.0129 0.9321 0.3620
vn 0.0740 0.9970 -0.0221
vt 0.773554 0.387390
vt 0.773547 0.387393
vt 0.796431 0.554997
vt 0.795800 0.555012
vt 0.773384 0.387397
vt 0.796305 0.326254
vt 0.796466 0.326415
vt 0.796305 0.326415
vt 0.796305 0.326576
vt 0.796466 0.326576
vt 0.796305 0.326737
vt 0.796466 0.326737
vt 0.796305 0.326898
vt 0.796466 0.326254
vt 0.796466 0.326898
vt 0.773537 0.387402
vt 0.773394 0.387405
vt 0.773381 0.387391
vt 0.783907 0.681446
vt 0.784555 0.681431
vt 0.768533 0.523257
vt 0.770015 0.523222
s 1
usemtl Material.013
f 2/1/1 29/2/1 1/2/1
f 61/3/2 64/4/3 62/3/4
f 3/5/5 2/1/5 1/2/5
f 7/6/6 10/7/6 9/8/6
f 10/7/7 13/9/7 9/8/7
f 14/10/8 11/11/8 13/9/8
f 12/12/9 7/13/9 11/11/9
f 15/6/8 18/7/8 16/14/8
f 17/8/7 22/10/7 18/7/7
f 19/11/6 22/10/6 21/9/6
f 19/11/9 16/15/9 20/12/9
f 24/16/10 5/5/10 6/2/10
f 26/16/11 52/16/11 54/16/11
f 6/2/10 52/16/10 24/16/10
f 27/5/5 6/2/5 5/5/5
f 26/16/12 23/17/12 24/16/12
f 33/5/10 23/17/10 51/17/10
f 5/5/11 55/5/11 27/5/11
f 51/17/1 25/17/1 53/17/1
f 31/5/11 4/18/11 3/5/11
f 30/1/12 31/5/12 29/2/12
f 37/8/6 36/14/6 35/6/6
f 37/8/9 42/10/9 38/7/9
f 41/9/8 40/12/8 42/10/8
f 35/13/7 40/12/7 39/11/7
f 44/14/8 45/8/8 43/6/8
f 45/8/9 50/10/9 49/9/9
f 49/9/6 48/12/6 47/11/6
f 47/11/7 44/15/7 43/13/7
f 52/16/10 33/5/10 51/17/10
f 34/2/12 55/5/12 33/5/12
f 51/17/5 54/16/5 52/16/5
f 6/2/1 56/2/1 34/2/1
f 29/19/10 58/19/13 1/19/10
f 29/19/10 59/20/14 57/19/15
f 3/20/10 59/20/16 31/20/10
f 1/19/10 60/20/17 3/20/10
f 57/21/18 62/21/19 58/21/20
f 57/21/21 63/22/22 61/21/23
f 59/22/24 64/22/25 63/22/26
f 58/21/27 64/22/28 60/22/29
f 26/16/30 56/2/30 28/2/30
f 55/5/30 25/17/30 27/5/30
f 26/16/30 27/5/30 25/17/30
f 54/16/30 55/5/30 56/2/30
f 45/8/30 47/11/30 43/6/30
f 41/9/30 35/13/30 39/11/30
f 13/9/30 7/6/30 9/8/30
f 17/8/30 19/11/30 21/9/30
f 30/1/30 4/18/30 32/18/30
f 2/1/1 30/1/1 29/2/1
f 61/3/2 63/4/31 64/4/3
f 3/5/5 4/18/5 2/1/5
f 7/6/6 8/14/6 10/7/6
f 10/7/7 14/10/7 13/9/7
f 14/10/8 12/12/8 11/11/8
f 12/12/9 8/15/9 7/13/9
f 15/6/8 17/8/8 18/7/8
f 17/8/7 21/9/7 22/10/7
f 19/11/6 20/12/6 22/10/6
f 19/11/9 15/13/9 16/15/9
f 24/16/10 23/17/10 5/5/10
f 26/16/11 24/16/11 52/16/11
f 6/2/10 34/2/10 52/16/10
f 27/5/5 28/2/5 6/2/5
f 26/16/12 25/17/12 23/17/12
f 33/5/10 5/5/10 23/17/10
f 5/5/11 33/5/11 55/5/11
f 51/17/1 23/17/1 25/17/1
f 31/5/11 32/18/11 4/18/11
f 30/1/12 32/18/12 31/5/12
f 37/8/6 38/7/6 36/14/6
f 37/8/9 41/9/9 42/10/9
f 41/9/8 39/11/8 40/12/8
f 35/13/7 36/15/7 40/12/7
f 44/14/8 46/7/8 45/8/8
f 45/8/9 46/7/9 50/10/9
f 49/9/6 50/10/6 48/12/6
f 47/11/7 48/12/7 44/15/7
f 52/16/10 34/2/10 33/5/10
f 34/2/12 56/2/12 55/5/12
f 51/17/5 53/17/5 54/16/5
f 6/2/1 28/2/1 56/2/1
f 29/19/10 57/19/32 58/19/13
f 29/19/10 31/20/10 59/20/14
f 3/20/10 60/20/33 59/20/16
f 1/19/10 58/19/34 60/20/17
f 57/21/18 61/21/35 62/21/19
f 57/21/21 59/22/36 63/22/22
f 59/22/24 60/22/37 64/22/25
f 58/21/27 62/21/38 64/22/28
f 26/16/30 54/16/30 56/2/30
f 55/5/30 53/17/30 25/17/30
f 26/16/30 28/2/30 27/5/30
f 54/16/30 53/17/30 55/5/30
f 45/8/30 49/9/30 47/11/30
f 41/9/30 37/8/30 35/13/30
f 13/9/30 11/11/30 7/6/30
f 17/8/30 15/13/30 19/11/30
f 30/1/30 2/1/30 4/18/30
