# Blender 4.5.3 LTS
# www.blender.org
mtllib PUERTA_CUARTO_VACIO.mtl
o Puerta03.001
v -0.019997 1.362465 0.466994
v -0.019997 0.893749 -0.001726
v -0.019997 1.356613 0.392634
v -0.019997 1.339492 0.321322
v -0.019997 1.311426 0.253565
v -0.019997 1.273108 0.191031
v -0.019997 1.225477 0.135264
v -0.019997 1.169709 0.087634
v -0.019997 1.107177 0.049315
v -0.019997 1.039421 0.021250
v -0.019997 0.968108 0.004130
v -0.019998 0.893749 0.934859
v -0.019997 1.362465 0.466143
v -0.019998 0.968108 0.929007
v -0.019998 1.039421 0.911887
v -0.019997 1.107177 0.883822
v -0.019997 1.169709 0.845503
v -0.019997 1.225477 0.797873
v -0.019997 1.273108 0.742102
v -0.019997 1.311426 0.679572
v -0.019997 1.339492 0.611815
v -0.019997 1.356613 0.540503
v -0.019997 -0.906921 -0.001726
v -0.019998 -0.906922 0.934859
v -0.000000 1.273108 0.191031
v -0.000000 1.225477 0.135264
v -0.000001 0.893749 0.934859
v -0.000001 0.968108 0.929007
v -0.000000 1.311426 0.679572
v -0.000000 1.339492 0.611815
v 0.000000 1.169709 0.087634
v -0.000001 -0.906922 0.934859
v -0.000001 1.273108 0.742102
v 0.000000 1.107177 0.049315
v -0.000000 1.362465 0.466143
v -0.000000 1.362465 0.466994
v -0.000001 1.225477 0.797873
v 0.000000 1.039421 0.021250
v 0.000000 0.893749 -0.001726
v -0.000000 -0.906921 -0.001726
v -0.000000 1.356613 0.392634
v -0.000001 1.169709 0.845503
v 0.000000 0.968108 0.004130
v -0.000000 1.339492 0.321322
v -0.000001 1.107177 0.883822
v -0.000000 1.311426 0.253565
v -0.000001 1.039421 0.911887
v -0.000000 1.356613 0.540503
v 0.034190 0.030897 0.826588
v -0.054185 0.030897 0.826588
v 0.034190 0.030191 0.833752
v -0.054185 0.030191 0.833752
v 0.034190 0.028101 0.840641
v -0.054185 0.028101 0.840641
v 0.034190 0.024708 0.846990
v -0.054185 0.024708 0.846990
v 0.034190 0.020141 0.852555
v -0.054185 0.020141 0.852555
v 0.034190 0.014576 0.857122
v -0.054185 0.014576 0.857122
v 0.034190 0.008227 0.860515
v -0.054185 0.008227 0.860515
v 0.034190 0.001338 0.862605
v -0.054185 0.001338 0.862605
v 0.034190 -0.005826 0.863311
v -0.054185 -0.005826 0.863311
v 0.034190 -0.012990 0.862605
v -0.054185 -0.012990 0.862605
v 0.034190 -0.019879 0.860515
v -0.054185 -0.019879 0.860515
v 0.034190 -0.026228 0.857122
v -0.054185 -0.026228 0.857122
v 0.034190 -0.031793 0.852555
v -0.054185 -0.031793 0.852555
v 0.034190 -0.036360 0.846990
v -0.054185 -0.036360 0.846990
v 0.034190 -0.039754 0.840641
v -0.054185 -0.039754 0.840641
v 0.034190 -0.041843 0.833752
v -0.054185 -0.041843 0.833752
v 0.034190 -0.042549 0.826588
v -0.054185 -0.042549 0.826588
v 0.034190 -0.041843 0.819424
v -0.054185 -0.041843 0.819424
v 0.034190 -0.039754 0.812535
v -0.054185 -0.039754 0.812535
v 0.034190 -0.036360 0.806186
v -0.054185 -0.036360 0.806186
v 0.034190 -0.031793 0.800621
v -0.054185 -0.031793 0.800621
v 0.034190 -0.026228 0.796054
v -0.054185 -0.026228 0.796054
v 0.034190 -0.019879 0.792661
v -0.054185 -0.019879 0.792661
v 0.034190 -0.012990 0.790571
v -0.054185 -0.012990 0.790571
v 0.034190 -0.005826 0.789865
v -0.054185 -0.005826 0.789865
v 0.034190 0.001338 0.790571
v -0.054185 0.001338 0.790571
v 0.034190 0.008227 0.792661
v -0.054185 0.008227 0.792661
v 0.034190 0.014576 0.796054
v -0.054185 0.014576 0.796054
v 0.034190 0.020141 0.800621
v -0.054185 0.020141 0.800621
v 0.034190 0.024708 0.806186
v -0.054185 0.024708 0.806186
v 0.034190 0.028101 0.812535
v -0.054185 0.028101 0.812535
v 0.034190 0.030191 0.819424
v -0.054185 0.030191 0.819424
v -0.019997 1.362465 0.466994
v -0.019997 0.893749 -0.001726
v -0.019997 1.356613 0.392634
v -0.019997 1.339492 0.321322
v -0.019997 1.311426 0.253565
v -0.019997 1.273108 0.191031
v -0.019997 1.225477 0.135264
v -0.019997 1.169709 0.087634
v -0.019997 1.107177 0.049315
v -0.019997 1.039421 0.021250
v -0.019997 0.968108 0.004130
v -0.019997 0.893749 0.934859
v -0.019997 1.362465 0.466143
v -0.019997 0.968108 0.929007
v -0.019997 1.039421 0.911887
v -0.019997 1.107177 0.883822
v -0.019997 1.169709 0.845503
v -0.019997 1.225477 0.797873
v -0.019997 1.273108 0.742102
v -0.019997 1.311426 0.679572
v -0.019997 1.339492 0.611815
v -0.019997 1.356613 0.540503
v -0.019997 -0.906921 -0.001726
v -0.019998 -0.906922 0.934859
v -0.000000 1.273108 0.191031
v -0.000000 1.225477 0.135264
v -0.000001 0.893749 0.934859
v -0.000001 0.968108 0.929007
v -0.000000 1.311426 0.679572
v -0.000000 1.339492 0.611815
v 0.000000 1.169709 0.087634
v -0.000001 -0.906922 0.934859
v -0.000001 1.273108 0.742102
v 0.000000 1.107177 0.049315
v -0.000000 1.362465 0.466143
v -0.000000 1.362465 0.466994
v -0.000001 1.225477 0.797873
v 0.000000 1.039421 0.021250
v 0.000000 0.893749 -0.001726
v -0.000000 -0.906921 -0.001726
v -0.000000 1.356613 0.392634
v -0.000001 1.169709 0.845503
v 0.000000 0.968108 0.004130
v -0.000000 1.339492 0.321322
v -0.000001 1.107177 0.883822
v -0.000000 1.311426 0.253565
v -0.000001 1.039421 0.911887
v -0.000000 1.356613 0.540503
v 0.019997 1.362465 0.466994
v 0.019997 0.893749 -0.001726
v 0.019997 1.356613 0.392634
v 0.019997 1.339492 0.321322
v 0.019997 1.311426 0.253565
v 0.019997 1.273108 0.191031
v 0.019997 1.225477 0.135264
v 0.019997 1.169709 0.087634
v 0.019997 1.107177 0.049315
v 0.019997 1.039421 0.021250
v 0.019997 0.968108 0.004130
v 0.019996 0.893749 0.934859
v 0.019997 1.362465 0.466143
v 0.019996 0.968108 0.929007
v 0.019996 1.039421 0.911887
v 0.019996 1.107177 0.883822
v 0.019996 1.169709 0.845503
v 0.019996 1.225477 0.797873
v 0.019996 1.273108 0.742102
v 0.019996 1.311426 0.679572
v 0.019996 1.339492 0.611815
v 0.019997 1.356613 0.540503
v 0.019997 -0.906921 -0.001726
v 0.019996 -0.906922 0.934859
v -0.034191 0.030897 0.826588
v 0.054184 0.030897 0.826588
v -0.034191 0.030191 0.833752
v 0.054184 0.030191 0.833752
v -0.034191 0.028101 0.840641
v 0.054184 0.028101 0.840641
v -0.034191 0.024708 0.846990
v 0.054184 0.024708 0.846990
v -0.034191 0.020141 0.852555
v 0.054184 0.020141 0.852555
v -0.034191 0.014576 0.857122
v 0.054184 0.014576 0.857122
v -0.034191 0.008227 0.860515
v 0.054184 0.008227 0.860516
v -0.034191 0.001338 0.862605
v 0.054184 0.001338 0.862605
v -0.034191 -0.005826 0.863311
v 0.054184 -0.005826 0.863311
v -0.034191 -0.012990 0.862605
v 0.054184 -0.012990 0.862605
v -0.034191 -0.019879 0.860515
v 0.054184 -0.019879 0.860516
v -0.034191 -0.026228 0.857122
v 0.054184 -0.026228 0.857122
v -0.034191 -0.031793 0.852555
v 0.054184 -0.031793 0.852555
v -0.034191 -0.036360 0.846990
v 0.054184 -0.036360 0.846990
v -0.034191 -0.039754 0.840641
v 0.054184 -0.039754 0.840641
v -0.034191 -0.041843 0.833752
v 0.054184 -0.041843 0.833752
v -0.034191 -0.042549 0.826588
v 0.054184 -0.042549 0.826588
v -0.034191 -0.041843 0.819424
v 0.054184 -0.041843 0.819424
v -0.034191 -0.039754 0.812535
v 0.054184 -0.039754 0.812535
v -0.034191 -0.036360 0.806186
v 0.054184 -0.036360 0.806186
v -0.034191 -0.031793 0.800621
v 0.054184 -0.031793 0.800621
v -0.034191 -0.026228 0.796054
v 0.054184 -0.026228 0.796054
v -0.034191 -0.019879 0.792661
v 0.054184 -0.019879 0.792661
v -0.034191 -0.012990 0.790571
v 0.054184 -0.012990 0.790571
v -0.034191 -0.005826 0.789865
v 0.054184 -0.005826 0.789865
v -0.034191 0.001338 0.790571
v 0.054184 0.001338 0.790571
v -0.034191 0.008227 0.792661
v 0.054184 0.008227 0.792661
v -0.034191 0.014576 0.796054
v 0.054184 0.014576 0.796054
v -0.034191 0.020141 0.800621
v 0.054184 0.020141 0.800621
v -0.034191 0.024708 0.806186
v 0.054184 0.024708 0.806186
v -0.034191 0.028101 0.812535
v 0.054184 0.028101 0.812535
v -0.034191 0.030191 0.819424
v 0.054184 0.030191 0.819424
v 0.019996 1.362465 0.466994
v 0.019997 0.893749 -0.001726
v 0.019997 1.356613 0.392634
v 0.019997 1.339492 0.321322
v 0.019997 1.311426 0.253565
v 0.019997 1.273108 0.191031
v 0.019997 1.225477 0.135264
v 0.019997 1.169709 0.087634
v 0.019997 1.107177 0.049315
v 0.019997 1.039421 0.021250
v 0.019997 0.968108 0.004130
v 0.019996 0.893749 0.934859
v 0.019996 1.362465 0.466143
v 0.019996 0.968108 0.929007
v 0.019996 1.039421 0.911887
v 0.019996 1.107177 0.883822
v 0.019996 1.169709 0.845503
v 0.019996 1.225477 0.797873
v 0.019996 1.273108 0.742102
v 0.019996 1.311426 0.679572
v 0.019996 1.339492 0.611815
v 0.019996 1.356613 0.540503
v 0.019997 -0.906921 -0.001726
v 0.019996 -0.906922 0.934859
vn -1.0000 -0.0000 -0.0000
vn -0.0000 0.9724 0.2335
vn -0.0000 0.2334 0.9724
vn -0.0000 0.8527 -0.5225
vn -0.0000 0.9969 0.0785
vn -0.0000 0.3827 0.9239
vn -0.0000 0.9239 -0.3827
vn -0.0000 0.0785 -0.9969
vn -0.0000 0.5225 0.8526
vn -0.0000 0.9724 -0.2335
vn -0.0000 -1.0000 -0.0000
vn -0.0000 0.2334 -0.9724
vn -0.0000 0.6494 0.7604
vn -0.0000 0.9969 -0.0785
vn -0.0000 -0.0000 -1.0000
vn -0.0000 0.3827 -0.9239
vn -0.0000 0.7604 0.6494
vn -0.0000 0.5225 -0.8526
vn -0.0000 0.8526 0.5225
vn -0.0000 -0.0000 1.0000
vn -0.0000 0.6494 -0.7604
vn -0.0000 0.9239 0.3827
vn -0.0000 0.0785 0.9969
vn -0.0000 0.7604 -0.6495
vn -0.0000 0.9952 0.0980
vn -0.0000 0.9569 0.2903
vn -0.0000 0.8819 0.4714
vn -0.0000 0.7730 0.6344
vn -0.0000 0.6344 0.7730
vn -0.0000 0.4714 0.8819
vn -0.0000 0.2903 0.9569
vn -0.0000 0.0980 0.9952
vn -0.0000 -0.0980 0.9952
vn -0.0000 -0.2903 0.9569
vn -0.0000 -0.4714 0.8819
vn -0.0000 -0.6344 0.7730
vn -0.0000 -0.7730 0.6344
vn -0.0000 -0.8819 0.4714
vn -0.0000 -0.9569 0.2903
vn -0.0000 -0.9952 0.0980
vn -0.0000 -0.9952 -0.0980
vn -0.0000 -0.9569 -0.2903
vn -0.0000 -0.8819 -0.4714
vn -0.0000 -0.7730 -0.6344
vn -0.0000 -0.6344 -0.7730
vn -0.0000 -0.4714 -0.8819
vn -0.0000 -0.2903 -0.9569
vn -0.0000 -0.0980 -0.9952
vn -0.0000 0.0980 -0.9952
vn -0.0000 0.2903 -0.9569
vn -0.0000 0.4714 -0.8819
vn -0.0000 0.6344 -0.7730
vn -0.0000 0.7730 -0.6344
vn -0.0000 0.8819 -0.4714
vn -0.0000 0.9569 -0.2903
vn -0.0000 0.9952 -0.0980
vn 1.0000 -0.0000 -0.0000
vt 0.502921 0.684252
vt 0.459460 0.682705
vt 0.417781 0.678178
vt 0.378180 0.670758
vt 0.341631 0.660627
vt 0.309037 0.648034
vt 0.281199 0.633290
vt 0.258803 0.616757
vt 0.242400 0.598843
vt 0.232394 0.579988
vt 0.228972 0.560329
vt 0.228972 0.084252
vt 0.776370 0.084252
vt 0.776370 0.560329
vt 0.772950 0.579988
vt 0.762944 0.598843
vt 0.746541 0.616757
vt 0.724145 0.633290
vt 0.696307 0.648034
vt 0.663711 0.660627
vt 0.627164 0.670758
vt 0.587563 0.678178
vt 0.545884 0.682705
vt 0.502424 0.684252
vt 0.970777 0.032664
vt 0.970777 0.015234
vt 1.000000 0.015234
vt 1.000000 0.032664
vt 0.912330 0.555522
vt 0.912330 0.533980
vt 0.941553 0.533980
vt 0.941553 0.555522
vt 0.941554 0.976863
vt 0.941554 0.955583
vt 0.970777 0.955583
vt 0.970777 0.976863
vt 0.970777 0.052188
vt 1.000000 0.052188
vt 0.912330 0.576851
vt 0.941553 0.576851
vt 0.941554 0.934039
vt 0.970777 0.934039
vt 0.941554 0.104393
vt 0.941554 0.082806
vt 0.970777 0.082806
vt 0.970777 0.104393
vt 0.912330 0.597441
vt 0.941553 0.597441
vt 0.941554 0.912760
vt 0.970777 0.912760
vt 0.941554 0.891920
vt 0.941554 0.616785
vt 0.970777 0.616785
vt 0.970777 0.891920
vt 0.941554 0.061264
vt 0.970777 0.061264
vt 0.912330 0.616786
vt 0.941553 0.616786
vt 0.941554 0.616784
vt 0.970777 0.616784
vt 0.941554 0.039935
vt 0.970777 0.039935
vt 0.912330 0.634409
vt 0.941553 0.634409
vt 0.971605 0.052188
vt 0.971605 0.061000
vt 0.970777 0.061000
vt 0.941554 0.019345
vt 0.970777 0.019345
vt 0.912330 0.649876
vt 0.941553 0.649876
vt 0.912330 0.512394
vt 0.912330 0.000000
vt 0.941554 0.000000
vt 0.941553 0.512394
vt 0.941554 0.000000
vt 0.970777 0.000000
vt 0.970777 0.000000
vt 1.000000 0.000000
vt 0.941554 0.997353
vt 0.970777 0.997353
vt 0.984946 0.738953
vt 0.984945 0.761047
vt 0.983798 0.761047
vt 0.983798 0.738953
vt 0.953696 0.738953
vt 0.953695 0.761047
vt 0.952548 0.761046
vt 0.952548 0.738953
vt 0.922446 0.738953
vt 0.922446 0.761047
vt 0.921298 0.761047
vt 0.921298 0.738953
vt 0.891196 0.738953
vt 0.891196 0.761047
vt 0.890049 0.761047
vt 0.890049 0.738953
vt 0.859946 0.738953
vt 0.859947 0.761047
vt 0.858799 0.761047
vt 0.858799 0.738953
vt 0.828697 0.738953
vt 0.828697 0.761047
vt 0.827550 0.761047
vt 0.827550 0.738953
vt 0.797448 0.738953
vt 0.797448 0.761047
vt 0.796300 0.761047
vt 0.796300 0.738953
vt 0.766199 0.738953
vt 0.766199 0.761047
vt 0.765051 0.761047
vt 0.765051 0.738953
vt 0.734949 0.738953
vt 0.734949 0.761047
vt 0.733801 0.761047
vt 0.733802 0.738953
vt 0.703700 0.738953
vt 0.703700 0.761047
vt 0.702552 0.761047
vt 0.702552 0.738953
vt 0.672450 0.738953
vt 0.672450 0.761047
vt 0.671303 0.761047
vt 0.671303 0.738953
vt 0.641201 0.738953
vt 0.641201 0.761047
vt 0.640053 0.761047
vt 0.640054 0.738953
vt 0.609951 0.738953
vt 0.609951 0.761047
vt 0.608804 0.761047
vt 0.608804 0.738953
vt 0.578702 0.738953
vt 0.578702 0.761047
vt 0.577554 0.761047
vt 0.577554 0.738953
vt 0.547452 0.738953
vt 0.547452 0.761047
vt 0.546304 0.761047
vt 0.546304 0.738953
vt 0.516202 0.738953
vt 0.516202 0.761047
vt 0.515055 0.761047
vt 0.515054 0.738953
vt 0.484952 0.738953
vt 0.484952 0.761047
vt 0.483804 0.761047
vt 0.483805 0.738953
vt 0.453702 0.738953
vt 0.453702 0.761047
vt 0.452554 0.761047
vt 0.452554 0.738953
vt 0.422452 0.738953
vt 0.422452 0.761047
vt 0.421304 0.761047
vt 0.421304 0.738953
vt 0.391201 0.738953
vt 0.391201 0.761047
vt 0.390054 0.761047
vt 0.390054 0.738953
vt 0.359951 0.738953
vt 0.359951 0.761047
vt 0.358803 0.761047
vt 0.358803 0.738953
vt 0.328700 0.738953
vt 0.328700 0.761047
vt 0.327553 0.761047
vt 0.327553 0.738953
vt 0.297450 0.738953
vt 0.297450 0.761047
vt 0.296302 0.761047
vt 0.296302 0.738953
vt 0.266199 0.738953
vt 0.266199 0.761047
vt 0.265052 0.761047
vt 0.265052 0.738953
vt 0.234948 0.738953
vt 0.234948 0.761047
vt 0.233801 0.761047
vt 0.233801 0.738953
vt 0.203698 0.738953
vt 0.203698 0.761047
vt 0.202550 0.761047
vt 0.202550 0.738953
vt 0.172447 0.738953
vt 0.172447 0.761047
vt 0.171300 0.761047
vt 0.171300 0.738953
vt 0.141197 0.738953
vt 0.141197 0.761047
vt 0.140049 0.761047
vt 0.140049 0.738953
vt 0.109946 0.738953
vt 0.109946 0.761047
vt 0.108799 0.761047
vt 0.108799 0.738953
vt 0.078696 0.738953
vt 0.078696 0.761047
vt 0.077548 0.761047
vt 0.077548 0.738953
vt 0.251724 0.258644
vt 0.250005 0.258813
vt 0.248286 0.258644
vt 0.246632 0.258143
vt 0.245109 0.257328
vt 0.243773 0.256232
vt 0.242677 0.254897
vt 0.241862 0.253373
vt 0.241361 0.251719
vt 0.241192 0.250000
vt 0.241361 0.248281
vt 0.241862 0.246627
vt 0.242677 0.245104
vt 0.243773 0.243768
vt 0.245108 0.242672
vt 0.246632 0.241857
vt 0.248285 0.241356
vt 0.250005 0.241187
vt 0.251724 0.241356
vt 0.253378 0.241857
vt 0.254902 0.242672
vt 0.256237 0.243768
vt 0.257333 0.245104
vt 0.258148 0.246627
vt 0.258649 0.248281
vt 0.258818 0.250000
vt 0.258649 0.251719
vt 0.258148 0.253373
vt 0.257333 0.254897
vt 0.256237 0.256232
vt 0.254902 0.257328
vt 0.253378 0.258143
vt 0.047446 0.738953
vt 0.047446 0.761047
vt 0.046298 0.761047
vt 0.046298 0.738953
vt 0.016196 0.738953
vt 0.016196 0.761047
vt 0.015048 0.761047
vt 0.015048 0.738953
vt 0.750005 0.258814
vt 0.751724 0.258644
vt 0.753378 0.258143
vt 0.754901 0.257328
vt 0.756237 0.256232
vt 0.757333 0.254896
vt 0.758148 0.253373
vt 0.758649 0.251719
vt 0.758819 0.250000
vt 0.758649 0.248281
vt 0.758148 0.246627
vt 0.757333 0.245103
vt 0.756237 0.243768
vt 0.754902 0.242672
vt 0.753378 0.241857
vt 0.751724 0.241356
vt 0.750005 0.241187
vt 0.748285 0.241356
vt 0.746632 0.241857
vt 0.745108 0.242672
vt 0.743773 0.243768
vt 0.742677 0.245104
vt 0.741862 0.246627
vt 0.741361 0.248281
vt 0.741191 0.250000
vt 0.741361 0.251719
vt 0.741862 0.253373
vt 0.742677 0.254896
vt 0.743773 0.256232
vt 0.745109 0.257328
vt 0.746632 0.258143
vt 0.748286 0.258644
s 1
usemtl puerta
f 1/1/1 3/2/1 4/3/1 5/4/1 6/5/1 7/6/1 8/7/1 9/8/1 10/9/1 11/10/1 2/11/1 23/12/1 24/13/1 12/14/1 14/15/1 15/16/1 16/17/1 17/18/1 18/19/1 19/20/1 20/21/1 21/22/1 22/23/1 13/24/1
f 22/25/2 21/26/2 30/27/2 48/28/2
f 15/29/3 14/30/3 28/31/3 47/32/3
f 6/33/4 5/34/4 46/35/4 25/36/4
f 13/37/5 22/25/5 48/28/5 35/38/5
f 16/39/6 15/29/6 47/32/6 45/40/6
f 5/34/7 4/41/7 44/42/7 46/35/7
f 2/43/8 11/44/8 43/45/8 39/46/8
f 17/47/9 16/39/9 45/40/9 42/48/9
f 4/41/10 3/49/10 41/50/10 44/42/10
f 24/51/11 23/52/11 40/53/11 32/54/11
f 11/44/12 10/55/12 38/56/12 43/45/12
f 18/57/13 17/47/13 42/48/13 37/58/13
f 3/49/14 1/51/14 36/54/14 41/50/14
f 23/59/15 2/43/15 39/46/15 40/60/15
f 10/55/16 9/61/16 34/62/16 38/56/16
f 19/63/17 18/57/17 37/58/17 33/64/17
f 1/37/11 13/65/11 35/66/11 36/67/11
f 9/61/18 8/68/18 31/69/18 34/62/18
f 20/70/19 19/63/19 33/64/19 29/71/19
f 12/72/20 24/73/20 32/74/20 27/75/20
f 8/68/21 7/76/21 26/77/21 31/69/21
f 21/26/22 20/78/22 29/79/22 30/27/22
f 14/30/23 12/72/23 27/75/23 28/31/23
f 7/80/24 6/33/24 25/36/24 26/81/24
f 113/1/1 115/2/1 116/3/1 117/4/1 118/5/1 119/6/1 120/7/1 121/8/1 122/9/1 123/10/1 114/11/1 135/12/1 136/13/1 124/14/1 126/15/1 127/16/1 128/17/1 129/18/1 130/19/1 131/20/1 132/21/1 133/22/1 134/23/1 125/24/1
f 134/25/2 133/26/2 142/27/2 160/28/2
f 127/29/3 126/30/3 140/31/3 159/32/3
f 118/33/4 117/34/4 158/35/4 137/36/4
f 125/37/5 134/25/5 160/28/5 147/38/5
f 128/39/6 127/29/6 159/32/6 157/40/6
f 117/34/7 116/41/7 156/42/7 158/35/7
f 114/43/8 123/44/8 155/45/8 151/46/8
f 129/47/9 128/39/9 157/40/9 154/48/9
f 116/41/10 115/49/10 153/50/10 156/42/10
f 136/51/11 135/52/11 152/53/11 144/54/11
f 123/44/12 122/55/12 150/56/12 155/45/12
f 130/57/13 129/47/13 154/48/13 149/58/13
f 115/49/14 113/51/14 148/54/14 153/50/14
f 135/59/15 114/43/15 151/46/15 152/60/15
f 122/55/16 121/61/16 146/62/16 150/56/16
f 131/63/17 130/57/17 149/58/17 145/64/17
f 113/37/11 125/65/11 147/66/11 148/67/11
f 121/61/18 120/68/18 143/69/18 146/62/18
f 132/70/19 131/63/19 145/64/19 141/71/19
f 124/72/20 136/73/20 144/74/20 139/75/20
f 120/68/21 119/76/21 138/77/21 143/69/21
f 133/26/22 132/78/22 141/79/22 142/27/22
f 126/30/23 124/72/23 139/75/23 140/31/23
f 119/80/24 118/33/24 137/36/24 138/81/24
f 161/1/57 173/24/57 182/23/57 181/22/57 180/21/57 179/20/57 178/19/57 177/18/57 176/17/57 175/16/57 174/15/57 172/14/57 184/13/57 183/12/57 162/11/57 171/10/57 170/9/57 169/8/57 168/7/57 167/6/57 166/5/57 165/4/57 164/3/57 163/2/57
f 182/25/2 48/28/2 30/27/2 181/26/2
f 175/29/3 47/32/3 28/31/3 174/30/3
f 166/33/4 25/36/4 46/35/4 165/34/4
f 173/37/5 35/38/5 48/28/5 182/25/5
f 176/39/6 45/40/6 47/32/6 175/29/6
f 165/34/7 46/35/7 44/42/7 164/41/7
f 162/43/8 39/46/8 43/45/8 171/44/8
f 177/47/9 42/48/9 45/40/9 176/39/9
f 164/41/10 44/42/10 41/50/10 163/49/10
f 184/51/11 32/54/11 40/53/11 183/52/11
f 171/44/12 43/45/12 38/56/12 170/55/12
f 178/57/13 37/58/13 42/48/13 177/47/13
f 163/49/14 41/50/14 36/54/14 161/51/14
f 183/59/15 40/60/15 39/46/15 162/43/15
f 170/55/16 38/56/16 34/62/16 169/61/16
f 179/63/17 33/64/17 37/58/17 178/57/17
f 161/37/11 36/67/11 35/66/11 173/65/11
f 169/61/18 34/62/18 31/69/18 168/68/18
f 180/70/19 29/71/19 33/64/19 179/63/19
f 172/72/20 27/75/20 32/74/20 184/73/20
f 168/68/21 31/69/21 26/77/21 167/76/21
f 181/26/22 30/27/22 29/79/22 180/78/22
f 174/30/23 28/31/23 27/75/23 172/72/23
f 167/80/24 26/81/24 25/36/24 166/33/24
f 249/1/57 261/24/57 270/23/57 269/22/57 268/21/57 267/20/57 266/19/57 265/18/57 264/17/57 263/16/57 262/15/57 260/14/57 272/13/57 271/12/57 250/11/57 259/10/57 258/9/57 257/8/57 256/7/57 255/6/57 254/5/57 253/4/57 252/3/57 251/2/57
f 270/25/2 160/28/2 142/27/2 269/26/2
f 263/29/3 159/32/3 140/31/3 262/30/3
f 254/33/4 137/36/4 158/35/4 253/34/4
f 261/37/5 147/38/5 160/28/5 270/25/5
f 264/39/6 157/40/6 159/32/6 263/29/6
f 253/34/7 158/35/7 156/42/7 252/41/7
f 250/43/8 151/46/8 155/45/8 259/44/8
f 265/47/9 154/48/9 157/40/9 264/39/9
f 252/41/10 156/42/10 153/50/10 251/49/10
f 272/51/11 144/54/11 152/53/11 271/52/11
f 259/44/12 155/45/12 150/56/12 258/55/12
f 266/57/13 149/58/13 154/48/13 265/47/13
f 251/49/14 153/50/14 148/54/14 249/51/14
f 271/59/15 152/60/15 151/46/15 250/43/15
f 258/55/16 150/56/16 146/62/16 257/61/16
f 267/63/17 145/64/17 149/58/17 266/57/17
f 249/37/11 148/67/11 147/66/11 261/65/11
f 257/61/18 146/62/18 143/69/18 256/68/18
f 268/70/19 141/71/19 145/64/19 267/63/19
f 260/72/20 139/75/20 144/74/20 272/73/20
f 256/68/21 143/69/21 138/77/21 255/76/21
f 269/26/22 142/27/22 141/79/22 268/78/22
f 262/30/23 140/31/23 139/75/23 260/72/23
f 255/80/24 138/81/24 137/36/24 254/33/24
usemtl marco_ventanas
f 49/82/25 50/83/25 52/84/25 51/85/25
f 51/86/26 52/87/26 54/88/26 53/89/26
f 53/90/27 54/91/27 56/92/27 55/93/27
f 55/94/28 56/95/28 58/96/28 57/97/28
f 57/98/29 58/99/29 60/100/29 59/101/29
f 59/102/30 60/103/30 62/104/30 61/105/30
f 61/106/31 62/107/31 64/108/31 63/109/31
f 63/110/32 64/111/32 66/112/32 65/113/32
f 65/114/33 66/115/33 68/116/33 67/117/33
f 67/118/34 68/119/34 70/120/34 69/121/34
f 69/122/35 70/123/35 72/124/35 71/125/35
f 71/126/36 72/127/36 74/128/36 73/129/36
f 73/130/37 74/131/37 76/132/37 75/133/37
f 75/134/38 76/135/38 78/136/38 77/137/38
f 77/138/39 78/139/39 80/140/39 79/141/39
f 79/142/40 80/143/40 82/144/40 81/145/40
f 81/146/41 82/147/41 84/148/41 83/149/41
f 83/150/42 84/151/42 86/152/42 85/153/42
f 85/154/43 86/155/43 88/156/43 87/157/43
f 87/158/44 88/159/44 90/160/44 89/161/44
f 89/162/45 90/163/45 92/164/45 91/165/45
f 91/166/46 92/167/46 94/168/46 93/169/46
f 93/170/47 94/171/47 96/172/47 95/173/47
f 95/174/48 96/175/48 98/176/48 97/177/48
f 97/178/49 98/179/49 100/180/49 99/181/49
f 99/182/50 100/183/50 102/184/50 101/185/50
f 101/186/51 102/187/51 104/188/51 103/189/51
f 103/190/52 104/191/52 106/192/52 105/193/52
f 105/194/53 106/195/53 108/196/53 107/197/53
f 107/198/54 108/199/54 110/200/54 109/201/54
f 52/202/1 50/203/1 112/204/1 110/205/1 108/206/1 106/207/1 104/208/1 102/209/1 100/210/1 98/211/1 96/212/1 94/213/1 92/214/1 90/215/1 88/216/1 86/217/1 84/218/1 82/219/1 80/220/1 78/221/1 76/222/1 74/223/1 72/224/1 70/225/1 68/226/1 66/227/1 64/228/1 62/229/1 60/230/1 58/231/1 56/232/1 54/233/1
f 109/234/55 110/235/55 112/236/55 111/237/55
f 111/238/56 112/239/56 50/240/56 49/241/56
f 49/242/57 51/243/57 53/244/57 55/245/57 57/246/57 59/247/57 61/248/57 63/249/57 65/250/57 67/251/57 69/252/57 71/253/57 73/254/57 75/255/57 77/256/57 79/257/57 81/258/57 83/259/57 85/260/57 87/261/57 89/262/57 91/263/57 93/264/57 95/265/57 97/266/57 99/267/57 101/268/57 103/269/57 105/270/57 107/271/57 109/272/57 111/273/57
f 185/82/25 187/85/25 188/84/25 186/83/25
f 187/86/26 189/89/26 190/88/26 188/87/26
f 189/90/27 191/93/27 192/92/27 190/91/27
f 191/94/28 193/97/28 194/96/28 192/95/28
f 193/98/29 195/101/29 196/100/29 194/99/29
f 195/102/30 197/105/30 198/104/30 196/103/30
f 197/106/31 199/109/31 200/108/31 198/107/31
f 199/110/32 201/113/32 202/112/32 200/111/32
f 201/114/33 203/117/33 204/116/33 202/115/33
f 203/118/34 205/121/34 206/120/34 204/119/34
f 205/122/35 207/125/35 208/124/35 206/123/35
f 207/126/36 209/129/36 210/128/36 208/127/36
f 209/130/37 211/133/37 212/132/37 210/131/37
f 211/134/38 213/137/38 214/136/38 212/135/38
f 213/138/39 215/141/39 216/140/39 214/139/39
f 215/142/40 217/145/40 218/144/40 216/143/40
f 217/146/41 219/149/41 220/148/41 218/147/41
f 219/150/42 221/153/42 222/152/42 220/151/42
f 221/154/43 223/157/43 224/156/43 222/155/43
f 223/158/44 225/161/44 226/160/44 224/159/44
f 225/162/45 227/165/45 228/164/45 226/163/45
f 227/166/46 229/169/46 230/168/46 228/167/46
f 229/170/47 231/173/47 232/172/47 230/171/47
f 231/174/48 233/177/48 234/176/48 232/175/48
f 233/178/49 235/181/49 236/180/49 234/179/49
f 235/182/50 237/185/50 238/184/50 236/183/50
f 237/186/51 239/189/51 240/188/51 238/187/51
f 239/190/52 241/193/52 242/192/52 240/191/52
f 241/194/53 243/197/53 244/196/53 242/195/53
f 243/198/54 245/201/54 246/200/54 244/199/54
f 188/202/57 190/233/57 192/232/57 194/231/57 196/230/57 198/229/57 200/228/57 202/227/57 204/226/57 206/225/57 208/224/57 210/223/57 212/222/57 214/221/57 216/220/57 218/219/57 220/218/57 222/217/57 224/216/57 226/215/57 228/214/57 230/213/57 232/212/57 234/211/57 236/210/57 238/209/57 240/208/57 242/207/57 244/206/57 246/205/57 248/204/57 186/203/57
f 245/234/55 247/237/55 248/236/55 246/235/55
f 247/238/56 185/241/56 186/240/56 248/239/56
f 185/242/1 247/273/1 245/272/1 243/271/1 241/270/1 239/269/1 237/268/1 235/267/1 233/266/1 231/265/1 229/264/1 227/263/1 225/262/1 223/261/1 221/260/1 219/259/1 217/258/1 215/257/1 213/256/1 211/255/1 209/254/1 207/253/1 205/252/1 203/251/1 201/250/1 199/249/1 197/248/1 195/247/1 193/246/1 191/245/1 189/244/1 187/243/1
