# Blender 4.5.3 LTS
# www.blender.org
mtllib ROPERO_CHICO.mtl
o MUEBLE
v -3.761036 0.399162 -2.221171
v -3.761036 0.674826 -2.221171
v -3.150758 0.399162 -2.221171
v -3.150758 0.674826 -2.221171
v -3.150758 0.674826 -2.221171
v -3.150758 0.399162 -2.221171
v -3.761036 0.399162 -2.221171
v -3.761036 0.674826 -2.221171
v -3.150758 0.674826 -2.794226
v -3.150758 0.399162 -2.794226
v -3.761036 0.399162 -2.794226
v -3.761036 0.674826 -2.794226
v -3.150758 0.674826 -2.221171
v -3.761036 0.674826 -2.221171
v -3.150758 0.674826 -2.794226
v -3.761036 0.674826 -2.794226
v -4.519721 0.034048 -2.220133
v -4.519721 0.371745 -2.220133
v -3.146870 0.034048 -2.220133
v -3.146870 0.371745 -2.220133
v -3.146870 0.371745 -2.793445
v -3.146870 0.034048 -2.793445
v -4.519721 0.034048 -2.793445
v -4.519721 0.371745 -2.793445
v -4.515147 0.399162 -2.221171
v -4.515147 0.674826 -2.221171
v -3.904869 0.399162 -2.221171
v -3.904869 0.674826 -2.221171
v -3.904869 0.674826 -2.221171
v -3.904869 0.399162 -2.221171
v -4.515147 0.399162 -2.221171
v -4.515147 0.674826 -2.221171
v -3.904869 0.674826 -2.794226
v -3.904869 0.399162 -2.794226
v -4.515147 0.399162 -2.794226
v -4.515147 0.674826 -2.794226
v -3.904869 0.674826 -2.221171
v -4.515147 0.674826 -2.221171
v -3.904869 0.674826 -2.794226
v -4.515147 0.674826 -2.794226
v -4.578853 0.006713 -2.893983
v -4.578853 0.696535 -2.893983
v -3.087737 0.006713 -2.893983
v -3.087737 0.696535 -2.893983
v -4.578853 0.006713 -2.204146
v -4.578853 0.696535 -2.204146
v -3.087737 0.006713 -2.204146
v -3.087737 0.696535 -2.204146
v -3.904869 0.399162 -2.204146
v -3.904869 0.674826 -2.204146
v -3.761036 0.399162 -2.204146
v -4.515147 0.399162 -2.204146
v -4.515147 0.674826 -2.204146
v -3.761036 0.674826 -2.204146
v -3.150758 0.667380 -2.204146
v -3.150758 0.674826 -2.204146
v -3.150758 0.399162 -2.204146
v -4.519721 0.034048 -2.204146
v -4.519721 0.371745 -2.204146
v -3.146870 0.371745 -2.204146
v -3.146870 0.034048 -2.204146
vn -1.0000 -0.0000 -0.0000
vn -0.0000 1.0000 -0.0000
vn -0.0000 -0.0000 -1.0000
vn -0.0000 -1.0000 -0.0000
vn 1.0000 -0.0000 -0.0000
vn -0.0000 -0.0000 1.0000
vt 0.323998 0.236531
vt 0.324036 0.231301
vt 0.324036 0.236531
vt 0.324151 0.231301
vt 0.324189 0.231934
vt 0.324151 0.231934
vt 0.325514 0.224894
vt 0.324229 0.230124
vt 0.324229 0.224894
vt 0.322732 0.236531
vt 0.323365 0.231301
vt 0.323365 0.236531
vt 0.325514 0.229290
vt 0.326147 0.230575
vt 0.325514 0.230575
vt 0.324229 0.235354
vt 0.325514 0.230124
vt 0.325514 0.235354
vt 0.326147 0.233146
vt 0.325514 0.231860
vt 0.326147 0.231860
vt 0.321586 0.231301
vt 0.322872 0.224894
vt 0.322872 0.231301
vt 0.322907 0.231301
vt 0.322943 0.224894
vt 0.322943 0.231301
vt 0.326800 0.226441
vt 0.326836 0.227865
vt 0.326800 0.227865
vt 0.320162 0.231301
vt 0.321586 0.224894
vt 0.325550 0.229290
vt 0.325550 0.227865
vt 0.325514 0.227865
vt 0.324113 0.236531
vt 0.324151 0.236531
vt 0.324151 0.232567
vt 0.324189 0.233200
vt 0.324151 0.233200
vt 0.321447 0.231301
vt 0.320162 0.236531
vt 0.323998 0.231301
vt 0.325514 0.233146
vt 0.326147 0.234431
vt 0.325514 0.234431
vt 0.321447 0.236531
vt 0.322732 0.231301
vt 0.200401 0.327354
vt 0.199660 0.321083
vt 0.200401 0.321083
vt 0.198919 0.327354
vt 0.198177 0.321083
vt 0.198919 0.321083
vt 0.199631 0.321332
vt 0.198177 0.327354
vt 0.197436 0.321083
vt 0.195487 0.321601
vt 0.194746 0.322342
vt 0.194746 0.321601
vt 0.194871 0.326613
vt 0.194130 0.327354
vt 0.194130 0.326613
vt 0.324075 0.231301
vt 0.324075 0.231442
vt 0.324075 0.236531
vt 0.324113 0.231301
vt 0.324151 0.233834
vt 0.322907 0.224894
vt 0.199254 0.324651
vt 0.198948 0.324402
vt 0.199631 0.324402
vt 0.199254 0.327157
vt 0.199325 0.324651
vt 0.199325 0.327157
vt 0.324189 0.231301
vt 0.326147 0.229290
vt 0.326836 0.226441
vt 0.320162 0.224894
vt 0.324229 0.231301
vt 0.326836 0.229290
vt 0.325514 0.226441
vt 0.324189 0.232567
vt 0.199660 0.327354
vt 0.198948 0.321332
vt 0.197436 0.327354
vt 0.195487 0.322342
vt 0.194871 0.327354
vt 0.324189 0.233834
vt 0.198950 0.324651
vt 0.199629 0.324651
vt 0.199629 0.327157
vt 0.199629 0.327089
vt 0.198950 0.327157
s 0
usemtl Material.003
f 51/1/1 2/2/1 1/3/1
f 2/4/2 56/5/2 4/6/2
f 12/7/1 7/8/1 8/9/1
f 11/10/3 9/11/3 10/12/3
f 11/13/4 6/14/4 7/15/4
f 10/16/5 5/17/5 6/18/5
f 15/19/2 14/20/2 13/21/2
f 22/22/5 20/23/5 19/24/5
f 58/25/1 18/26/1 17/27/1
f 18/28/2 60/29/2 20/30/2
f 23/31/3 21/32/3 22/22/3
f 24/9/1 17/27/1 18/26/1
f 23/29/4 19/33/4 17/34/4
f 21/35/2 18/28/2 20/30/2
f 52/36/1 26/4/1 25/37/1
f 26/38/2 50/39/2 28/40/2
f 36/41/1 31/42/1 32/31/1
f 35/12/3 33/43/3 34/1/3
f 35/44/4 30/45/4 31/46/4
f 34/47/5 29/48/5 30/10/5
f 39/21/2 38/15/2 37/14/2
f 42/49/3 43/50/3 41/51/3
f 44/52/5 47/53/5 43/54/5
f 47/50/6 61/55/6 45/54/6
f 46/56/1 41/57/1 45/53/1
f 47/58/4 41/59/4 43/60/4
f 44/61/2 46/62/2 48/63/2
f 4/2/5 56/64/5 55/65/5
f 17/34/4 61/13/4 58/35/4
f 27/66/5 50/67/5 49/36/5
f 25/39/4 49/68/4 52/40/4
f 1/5/4 57/38/4 51/6/4
f 19/24/5 60/69/5 61/25/5
f 49/70/6 59/71/6 60/72/6
f 50/73/6 51/74/6 54/75/6
f 51/1/1 54/43/1 2/2/1
f 2/4/2 54/76/2 56/5/2
f 12/7/1 11/17/1 7/8/1
f 11/10/3 12/48/3 9/11/3
f 11/13/4 10/77/4 6/14/4
f 10/16/5 9/8/5 5/17/5
f 15/19/2 16/44/2 14/20/2
f 22/22/5 21/32/5 20/23/5
f 58/25/1 59/69/1 18/26/1
f 18/28/2 59/78/2 60/29/2
f 23/31/3 24/79/3 21/32/3
f 24/9/1 23/80/1 17/27/1
f 23/29/4 22/81/4 19/33/4
f 21/35/2 24/82/2 18/28/2
f 52/36/1 53/67/1 26/4/1
f 26/38/2 53/83/2 50/39/2
f 36/41/1 35/47/1 31/42/1
f 35/12/3 36/11/3 33/43/3
f 35/44/4 34/19/4 30/45/4
f 34/47/5 33/41/5 29/48/5
f 39/21/2 40/20/2 38/15/2
f 42/49/3 44/84/3 43/50/3
f 44/52/5 48/56/5 47/53/5
f 47/50/6 48/84/6 60/72/6
f 61/55/6 58/85/6 45/54/6
f 47/50/6 60/72/6 61/55/6
f 46/56/1 42/86/1 41/57/1
f 47/58/4 45/87/4 41/59/4
f 44/61/2 42/88/2 46/62/2
f 55/65/5 57/66/5 3/3/5
f 3/3/5 4/2/5 55/65/5
f 17/34/4 19/33/4 61/13/4
f 27/66/5 28/64/5 50/67/5
f 25/39/4 27/89/4 49/68/4
f 1/5/4 3/83/4 57/38/4
f 19/24/5 20/23/5 60/69/5
f 46/52/6 45/54/6 59/71/6
f 45/54/6 58/85/6 59/71/6
f 52/90/6 46/52/6 59/71/6
f 60/72/6 48/84/6 57/91/6
f 48/84/6 56/92/6 55/93/6
f 57/91/6 48/84/6 55/93/6
f 57/91/6 51/74/6 60/72/6
f 51/74/6 49/70/6 60/72/6
f 49/70/6 52/90/6 59/71/6
f 46/52/6 52/90/6 53/94/6
f 50/73/6 49/70/6 51/74/6
f 46/52/6 53/94/6 50/73/6
f 56/92/6 48/84/6 54/75/6
f 48/84/6 46/52/6 50/73/6
f 54/75/6 48/84/6 50/73/6
