# Blender 4.5.3 LTS
# www.blender.org
mtllib CAJON_GRANDE.mtl
o CAJON_GRANDE
v -0.686425 -0.212233 0.150080
v -0.686425 0.125464 0.150080
v 0.686425 -0.212233 0.150080
v 0.686425 0.125464 0.150080
v -0.686425 -0.212233 0.110896
v -0.686425 0.125464 0.110896
v 0.686425 -0.212233 0.110896
v 0.686425 0.125464 0.110896
v -0.189165 0.059035 0.013206
v -0.189165 0.071118 0.013206
v 0.189166 0.059035 0.013206
v 0.189166 0.071118 0.013206
v -0.189165 0.059035 0.188234
v -0.189165 0.071118 0.188234
v 0.189165 0.059035 0.188234
v 0.189165 0.071118 0.188234
v 0.686425 0.125464 -0.462416
v 0.686425 -0.212233 -0.462416
v -0.686425 -0.212233 -0.462416
v -0.686425 0.125464 -0.462416
vn -0.0000 -0.0000 -1.0000
vn -1.0000 -0.0000 -0.0000
vn 1.0000 -0.0000 -0.0000
vn -0.0000 1.0000 -0.0000
vn -0.0000 -1.0000 -0.0000
vn -0.0000 -0.0000 1.0000
vt 0.878171 0.064961
vt 0.878092 0.065040
vt 0.878092 0.064961
vt 0.878171 0.065040
vt 0.878092 0.065119
vt 0.878171 0.065119
vt 0.877739 0.076588
vt 0.878171 0.065198
vt 0.878092 0.065277
vt 0.878092 0.065198
vt 0.878013 0.065198
vt 0.878013 0.065119
vt 0.878250 0.065119
vt 0.897661 0.924739
vt 0.894711 0.927688
vt 0.894711 0.924739
vt 0.897661 0.927688
vt 0.894711 0.930637
vt 0.897661 0.930637
vt 0.894711 0.933586
vt 0.897661 0.933586
vt 0.894711 0.936535
vt 0.891762 0.933586
vt 0.891762 0.930637
vt 0.900610 0.930637
vt 0.878523 0.054435
vt 0.889208 0.065903
vt 0.878523 0.076588
vt 0.878171 0.065277
vt 0.878250 0.065198
vt 0.897661 0.936535
vt 0.900610 0.933586
vt 0.877739 0.054435
vt 0.889208 0.065119
s 0
usemtl Material.010
f 10/14/1 11/15/1 9/16/1
f 12/17/3 15/18/3 11/15/3
f 16/19/6 13/20/6 15/18/6
f 14/21/2 9/22/2 13/20/2
f 15/18/5 9/23/5 11/24/5
f 12/25/4 14/21/4 16/19/4
f 10/14/1 12/17/1 11/15/1
f 12/17/3 16/19/3 15/18/3
f 16/19/6 14/21/6 13/20/6
f 14/21/2 10/31/2 9/22/2
f 15/18/5 13/20/5 9/23/5
f 12/25/4 10/32/4 14/21/4
usemtl Material.003
f 2/1/1 3/2/1 1/3/1
f 4/4/2 7/5/2 3/2/2
f 8/6/2 18/7/2 7/5/2
f 6/8/3 1/9/3 5/10/3
f 7/5/4 1/11/4 3/12/4
f 4/13/5 6/8/5 8/6/5
f 17/6/6 19/10/6 18/5/6
f 5/10/3 20/26/3 6/8/3
f 7/5/4 19/27/4 5/10/4
f 2/1/1 4/4/1 3/2/1
f 4/4/2 8/6/2 7/5/2
f 8/6/2 17/28/2 18/7/2
f 6/8/3 2/29/3 1/9/3
f 7/5/4 5/10/4 1/11/4
f 4/13/5 2/30/5 6/8/5
f 17/6/6 20/8/6 19/10/6
f 5/10/3 19/33/3 20/26/3
f 7/5/4 18/34/4 19/27/4
