# Blender 4.5.3 LTS
# www.blender.org
mtllib LAVADORA.mtl
o washing_machine_001
v -4.106139 0.006602 -6.787965
v -4.106139 1.244809 -6.787965
v -3.241071 0.006602 -6.787965
v -3.241072 1.244809 -6.787965
v -4.106139 0.006602 -6.056492
v -4.106139 1.244810 -6.056492
v -3.241071 0.006602 -6.056492
v -3.241072 1.244810 -6.056492
v -4.048092 0.131258 -6.054518
v -4.048092 0.285888 -6.054518
v -3.843582 0.131258 -6.054518
v -3.843582 0.285888 -6.054518
v -4.104502 1.063690 -6.066083
v -4.104502 1.203930 -6.066083
v -3.246760 1.063690 -6.066083
v -3.246760 1.203931 -6.066083
v -4.083076 0.095625 -6.056492
v -4.083076 1.072354 -6.056492
v -3.264135 0.095625 -6.056492
v -3.264135 1.072354 -6.056492
v -4.085408 0.093393 -6.056492
v -4.085408 1.196255 -6.056492
v -3.261796 0.093393 -6.056492
v -3.261796 1.196255 -6.056492
v -3.345525 1.129541 -6.074115
v -3.352307 1.129541 -6.050151
v -3.362350 1.100399 -6.074115
v -3.365737 1.106273 -6.050151
v -3.396000 1.100399 -6.074115
v -3.392609 1.106273 -6.050151
v -3.412825 1.129541 -6.074115
v -3.406043 1.129541 -6.050151
v -3.396000 1.158683 -6.074115
v -3.392609 1.152809 -6.050151
v -3.362350 1.158683 -6.074115
v -3.365737 1.152809 -6.050151
v -3.331661 1.114978 -6.073174
v -3.331661 1.126174 -6.073174
v -3.298000 1.114978 -6.073174
v -3.298000 1.126174 -6.073174
v -3.331661 1.114978 -6.058992
v -3.331661 1.126174 -6.058992
v -3.298000 1.114978 -6.058992
v -3.298000 1.126174 -6.058992
v -3.331661 1.090470 -6.073174
v -3.331661 1.101665 -6.073174
v -3.298000 1.090470 -6.073174
v -3.298000 1.101665 -6.073174
v -3.331661 1.090470 -6.058992
v -3.331661 1.101665 -6.058992
v -3.298000 1.090470 -6.058992
v -3.298000 1.101665 -6.058992
v -3.834915 1.106954 -6.065912
v -3.834915 1.120184 -6.065912
v -3.801248 1.106954 -6.065912
v -3.801248 1.120184 -6.065912
v -3.834915 1.077994 -6.065916
v -3.834915 1.091223 -6.065916
v -3.801248 1.077994 -6.065916
v -3.801248 1.091223 -6.065916
v -3.834915 1.165612 -6.065912
v -3.834915 1.178842 -6.065912
v -3.801248 1.165612 -6.065912
v -3.801248 1.178842 -6.065912
v -3.834915 1.136652 -6.065916
v -3.834915 1.149882 -6.065916
v -3.801248 1.136652 -6.065916
v -3.801248 1.149882 -6.065916
v -3.788933 1.074961 -6.065910
v -3.788933 1.181527 -6.065910
v -3.602631 1.074961 -6.065910
v -3.602631 1.181527 -6.065910
v -3.852778 1.022378 -6.063599
v -3.852778 1.203460 -6.063599
v -3.860075 1.022378 -6.063599
v -3.860075 1.203460 -6.063599
v -3.427751 1.129541 -6.074115
v -3.434533 1.129541 -6.050151
v -3.444580 1.100399 -6.074115
v -3.447971 1.106273 -6.050151
v -3.478229 1.100399 -6.074115
v -3.474838 1.106273 -6.050151
v -3.495054 1.129541 -6.074115
v -3.488276 1.129541 -6.050151
v -3.478229 1.158683 -6.074115
v -3.474838 1.152809 -6.050151
v -3.444580 1.158683 -6.074115
v -3.447971 1.152809 -6.050151
v -3.509974 1.129541 -6.074115
v -3.516763 1.129541 -6.050151
v -3.526802 1.100399 -6.074115
v -3.530200 1.106273 -6.050151
v -3.560459 1.100399 -6.074115
v -3.557061 1.106273 -6.050151
v -3.577280 1.129541 -6.074115
v -3.570498 1.129541 -6.050151
v -3.560459 1.158683 -6.074115
v -3.557061 1.152809 -6.050151
v -3.526802 1.158683 -6.074115
v -3.530200 1.152809 -6.050151
vn 1.0000 -0.0000 -0.0000
vn -1.0000 -0.0000 -0.0000
vn -0.0000 1.0000 -0.0000
vn -0.0000 -0.0000 1.0000
vn 0.8412 -0.4856 0.2380
vn 0.8412 -0.4856 0.2379
vn -0.0000 -0.9712 0.2381
vn -0.8411 -0.4856 0.2381
vn -0.8411 0.4856 0.2381
vn -0.0000 0.9712 0.2381
vn 0.8412 0.4856 0.2380
vn 0.8412 0.4856 0.2379
vn 0.8411 -0.4857 0.2381
vn 0.8411 -0.4857 0.2380
vn -0.8411 -0.4857 0.2380
vn -0.8411 0.4857 0.2380
vn 0.8411 0.4857 0.2381
vn 0.8411 0.4857 0.2380
vn 0.8410 -0.4857 0.2383
vn -0.8411 -0.4856 0.2382
vn -0.8412 -0.4855 0.2381
vn -0.8411 0.4856 0.2382
vn -0.8412 0.4855 0.2381
vn 0.8410 0.4857 0.2383
vn -0.0000 -0.0000 -1.0000
vn -0.0000 -1.0000 -0.0000
vn 0.8412 -0.4855 0.2381
vn 0.8412 0.4855 0.2381
vn -0.8411 -0.4857 0.2379
vn -0.8411 0.4857 0.2379
vn -0.8410 -0.4857 0.2383
vn -0.8410 0.4857 0.2383
vt 0.848413 0.249418
vt 0.848372 0.249327
vt 0.848454 0.249327
vt 0.848372 0.249327
vt 0.848330 0.249464
vt 0.848289 0.249327
vt 0.848289 0.249510
vt 0.848289 0.249419
vt 0.848582 0.246908
vt 0.848721 0.247201
vt 0.848582 0.247201
vt 0.872886 0.071338
vt 0.873164 0.074029
vt 0.872886 0.074029
vt 0.850473 0.118981
vt 0.851008 0.118269
vt 0.851008 0.118981
vt 0.848316 0.247525
vt 0.848314 0.247440
vt 0.848316 0.247434
vt 0.848234 0.247525
vt 0.848236 0.247440
vt 0.848236 0.247522
vt 0.848234 0.247434
vt 0.848314 0.247522
vt 0.850823 0.119862
vt 0.850801 0.119848
vt 0.850823 0.119844
vt 0.850868 0.119874
vt 0.850846 0.119847
vt 0.850868 0.119844
vt 0.850779 0.119848
vt 0.850756 0.119862
vt 0.850756 0.119844
vt 0.850779 0.119876
vt 0.850756 0.119880
vt 0.851132 0.119085
vt 0.851116 0.119089
vt 0.851100 0.119055
vt 0.850913 0.119871
vt 0.850935 0.119844
vt 0.850935 0.119874
vt 0.850801 0.119876
vt 0.850823 0.119880
vt 0.869985 0.670551
vt 0.869961 0.670608
vt 0.869961 0.670551
vt 0.869819 0.670664
vt 0.869843 0.670551
vt 0.869843 0.670664
vt 0.870032 0.670551
vt 0.870009 0.670608
vt 0.870009 0.670551
vt 0.869795 0.670551
vt 0.869744 0.670664
vt 0.869744 0.670551
vt 0.869938 0.670608
vt 0.869819 0.670551
vt 0.869795 0.670664
vt 0.869985 0.670608
vt 0.869694 0.670664
vt 0.869744 0.670551
vt 0.869744 0.670664
vt 0.896227 0.796796
vt 0.896202 0.796678
vt 0.896227 0.796678
vt 0.896252 0.796678
vt 0.896252 0.796796
vt 0.894559 0.796796
vt 0.894583 0.796678
vt 0.894583 0.796796
vt 0.896276 0.796796
vt 0.896276 0.796678
vt 0.894030 0.797324
vt 0.894218 0.796685
vt 0.894218 0.797324
vt 0.891740 0.279815
vt 0.891747 0.279948
vt 0.891747 0.279815
vt 0.850779 0.119862
vt 0.850801 0.119844
vt 0.850801 0.119862
vt 0.850890 0.119871
vt 0.850913 0.119844
vt 0.850913 0.119874
vt 0.850734 0.119848
vt 0.850711 0.119862
vt 0.850711 0.119844
vt 0.850734 0.119876
vt 0.850711 0.119880
vt 0.850679 0.119879
vt 0.850666 0.119891
vt 0.850653 0.119879
vt 0.850980 0.119847
vt 0.850957 0.119874
vt 0.850957 0.119844
vt 0.850801 0.119880
vt 0.850823 0.119862
vt 0.850846 0.119844
vt 0.850845 0.119862
vt 0.850890 0.119874
vt 0.850868 0.119847
vt 0.850890 0.119844
vt 0.850734 0.119844
vt 0.850756 0.119862
vt 0.850734 0.119862
vt 0.850734 0.119880
vt 0.850679 0.119866
vt 0.850679 0.119848
vt 0.850695 0.119844
vt 0.850935 0.119847
vt 0.850846 0.119880
vt 0.848372 0.249418
vt 0.848372 0.249418
vt 0.848721 0.246908
vt 0.873164 0.071338
vt 0.850473 0.118269
vt 0.850801 0.119862
vt 0.850846 0.119871
vt 0.850778 0.119862
vt 0.851100 0.119074
vt 0.851116 0.119052
vt 0.851132 0.119067
vt 0.850913 0.119847
vt 0.870032 0.670608
vt 0.869795 0.670664
vt 0.869938 0.670551
vt 0.869694 0.670551
vt 0.896202 0.796796
vt 0.894559 0.796678
vt 0.894030 0.796685
vt 0.891740 0.279948
vt 0.850779 0.119848
vt 0.850890 0.119847
vt 0.850734 0.119862
vt 0.850653 0.119856
vt 0.850666 0.119844
vt 0.850679 0.119856
vt 0.850980 0.119871
vt 0.850779 0.119876
vt 0.850823 0.119848
vt 0.850868 0.119871
vt 0.850756 0.119848
vt 0.850756 0.119876
vt 0.850711 0.119859
vt 0.850711 0.119878
vt 0.850695 0.119881
vt 0.850935 0.119871
vt 0.850823 0.119876
s 1
usemtl Material
f 4/1/1 7/2/1 3/3/1
f 5/4/2 2/5/2 1/6/2
f 4/1/3 6/7/3 8/8/3
f 11/9/4 10/10/4 9/11/4
f 15/12/4 14/13/4 13/14/4
f 20/15/4 17/16/4 19/17/4
f 8/18/4 23/19/4 7/20/4
f 6/21/4 21/22/4 22/23/4
f 7/20/4 21/22/4 5/24/4
f 8/18/4 22/23/4 24/25/4
f 25/26/5 28/27/5 27/28/6
f 27/29/7 30/30/7 29/31/7
f 30/32/8 31/33/8 29/34/8
f 31/33/9 34/35/9 33/36/9
f 32/37/4 30/38/4 26/39/4
f 34/40/10 35/41/10 33/42/10
f 36/43/11 25/26/11 35/44/12
f 40/45/1 43/46/1 39/47/1
f 44/48/4 41/49/4 43/50/4
f 42/51/2 37/52/2 41/53/2
f 40/54/3 42/55/3 44/56/3
f 48/57/1 51/47/1 47/46/1
f 52/58/4 49/59/4 51/54/4
f 50/53/2 45/60/2 49/45/2
f 48/61/3 50/62/3 52/63/3
f 55/64/4 54/65/4 53/66/4
f 60/64/4 57/67/4 59/68/4
f 64/69/4 61/70/4 63/71/4
f 67/72/4 66/67/4 65/73/4
f 72/74/4 69/75/4 71/76/4
f 73/77/4 76/78/4 75/79/4
f 78/80/13 79/81/13 77/82/14
f 80/83/7 81/84/7 79/85/7
f 82/86/15 83/87/15 81/88/8
f 83/87/16 86/89/16 85/90/9
f 86/91/4 84/92/4 82/93/4
f 86/94/10 87/95/10 85/96/10
f 87/97/17 78/80/17 77/82/18
f 90/98/19 91/99/19 89/100/19
f 91/101/7 94/102/7 93/103/7
f 93/104/20 96/105/20 95/106/21
f 96/105/22 97/107/22 95/106/23
f 98/108/4 96/109/4 94/110/4
f 97/95/10 100/111/10 99/96/10
f 99/112/24 90/98/24 89/100/24
f 3/3/25 2/5/25 4/1/25
f 5/4/26 3/3/26 7/20/26
f 4/1/1 8/113/1 7/2/1
f 5/4/2 6/114/2 2/5/2
f 4/1/3 2/5/3 6/7/3
f 11/9/4 12/115/4 10/10/4
f 15/12/4 16/116/4 14/13/4
f 20/15/4 18/117/4 17/16/4
f 8/18/4 24/25/4 23/19/4
f 6/21/4 5/24/4 21/22/4
f 7/20/4 23/19/4 21/22/4
f 8/18/4 6/21/4 22/23/4
f 25/26/5 26/118/27 28/27/5
f 27/29/7 28/119/7 30/30/7
f 30/32/8 32/120/8 31/33/8
f 31/33/9 32/120/9 34/35/9
f 30/38/4 28/121/4 26/39/4
f 26/39/4 36/122/4 34/123/4
f 34/123/4 32/37/4 26/39/4
f 34/40/10 36/124/10 35/41/10
f 36/43/11 26/118/28 25/26/11
f 40/45/1 44/60/1 43/46/1
f 44/48/4 42/58/4 41/49/4
f 42/51/2 38/125/2 37/52/2
f 40/54/3 38/126/3 42/55/3
f 48/57/1 52/127/1 51/47/1
f 52/58/4 50/48/4 49/59/4
f 50/53/2 46/52/2 45/60/2
f 48/61/3 46/128/3 50/62/3
f 55/64/4 56/129/4 54/65/4
f 60/64/4 58/66/4 57/67/4
f 64/69/4 62/130/4 61/70/4
f 67/72/4 68/68/4 66/67/4
f 72/74/4 70/131/4 69/75/4
f 73/77/4 74/132/4 76/78/4
f 78/80/13 80/133/13 79/81/13
f 80/83/7 82/134/7 81/84/7
f 82/86/15 84/135/29 83/87/15
f 83/87/16 84/135/30 86/89/16
f 82/93/4 80/136/4 86/91/4
f 80/136/4 78/137/4 86/91/4
f 78/137/4 88/138/4 86/91/4
f 86/94/10 88/139/10 87/95/10
f 87/97/17 88/140/17 78/80/17
f 90/98/19 92/141/19 91/99/19
f 91/101/7 92/142/7 94/102/7
f 93/104/20 94/143/31 96/105/20
f 96/105/22 98/144/32 97/107/22
f 94/110/4 92/145/4 98/108/4
f 92/145/4 90/146/4 98/108/4
f 90/146/4 100/147/4 98/108/4
f 97/95/10 98/148/10 100/111/10
f 99/112/24 100/149/24 90/98/24
f 3/3/25 1/6/25 2/5/25
f 5/4/26 1/6/26 3/3/26
